<?xml version="1.0" encoding="UTF-8"?>
<svg xmlns="http://www.w3.org/2000/svg" viewBox="0 0 24 24" width="512" height="512">
  <!-- Фон -->
  <circle cx="12" cy="12" r="11" fill="#6200ee"/>
  
  <!-- Книга -->
  <path d="M6 5h12a1 1 0 0 1 1 1v12a1 1 0 0 1-1 1H6a1 1 0 0 1-1-1V6a1 1 0 0 1 1-1zm0 1v12h12V6H6zm2 7h8v1H8v-1zm0-3h8v1H8v-1zm0 6h5v1H8v-1z" fill="white"/>
  
  <!-- Поверхность страниц -->
  <path d="M8 6h8v1H8V6z" fill="#e0e0e0" opacity="0.7"/>
  
  <!-- Закладка -->
  <path d="M14 6v4l1-1 1 1V6h-2z" fill="#ff5252"/>
</svg>