<?xml version="1.0" encoding="UTF-8"?>
<svg xmlns="http://www.w3.org/2000/svg" viewBox="0 0 24 24" width="512" height="512">
  <!-- Фон -->
  <rect x="0" y="0" width="24" height="24" fill="white"/>
  
  <!-- Обложка -->
  <path d="M6 5h12a1 1 0 0 1 1 1v12a1 1 0 0 1-1 1H6a1 1 0 0 1-1-1V6a1 1 0 0 1 1-1z" fill="#808080"/>
  
  <!-- Страницы -->
  <path d="M6 6h12v12H6z" fill="white"/>
  
  <!-- Поверхность страниц -->
  <path d="M8 6h8v1H8V6z" fill="#e0e0e0" opacity="0.7"/>
  
  <!-- Текст на страницах -->
  <path d="M8 10h8v1H8v-1z M8 13h8v1H8v-1z M8 16h5v1H8v-1z" fill="black"/>
  
  <!-- Закладка -->
  <path d="M14 6v4l1-1 1 1V6h-2z" fill="#ff5252"/>
</svg>